<mxfile host="Electron" agent="Mozilla/5.0 (Windows NT 10.0; Win64; x64) AppleWebKit/537.36 (KHTML, like Gecko) draw.io/25.0.2 Chrome/128.0.6613.186 Electron/32.2.5 Safari/537.36" version="25.0.2">
  <diagram name="Página-1" id="6_pSW1k7oxf8ckgzg11X">
    <mxGraphModel dx="1434" dy="836" grid="1" gridSize="10" guides="1" tooltips="1" connect="1" arrows="1" fold="1" page="1" pageScale="1" pageWidth="827" pageHeight="1169" math="0" shadow="0">
      <root>
        <mxCell id="0" />
        <mxCell id="1" parent="0" />
        <mxCell id="sQrY8hl3HeHy2u5ssBxb-6" style="edgeStyle=orthogonalEdgeStyle;rounded=0;orthogonalLoop=1;jettySize=auto;html=1;entryX=0;entryY=0.5;entryDx=0;entryDy=0;entryPerimeter=0;" parent="1" source="sQrY8hl3HeHy2u5ssBxb-1" target="sQrY8hl3HeHy2u5ssBxb-7" edge="1">
          <mxGeometry relative="1" as="geometry">
            <mxPoint x="230" y="200" as="targetPoint" />
          </mxGeometry>
        </mxCell>
        <mxCell id="sQrY8hl3HeHy2u5ssBxb-1" value="Customer" style="shape=umlActor;verticalLabelPosition=bottom;verticalAlign=top;html=1;outlineConnect=0;" parent="1" vertex="1">
          <mxGeometry x="70" y="170" width="30" height="60" as="geometry" />
        </mxCell>
        <mxCell id="sQrY8hl3HeHy2u5ssBxb-4" value="&lt;font style=&quot;font-size: 9px;&quot;&gt;Nome,&amp;nbsp;&lt;/font&gt;&lt;span style=&quot;font-size: 9px; background-color: initial;&quot;&gt;Cpf,&amp;nbsp;&lt;/span&gt;&lt;span style=&quot;font-size: 9px; background-color: initial;&quot;&gt;Email,&lt;/span&gt;&lt;div&gt;&lt;font style=&quot;font-size: 9px;&quot;&gt;Foto Documento&lt;/font&gt;&lt;/div&gt;" style="text;html=1;align=center;verticalAlign=middle;resizable=0;points=[];autosize=1;strokeColor=none;fillColor=none;" parent="1" vertex="1">
          <mxGeometry x="115" y="160" width="100" height="40" as="geometry" />
        </mxCell>
        <mxCell id="sQrY8hl3HeHy2u5ssBxb-11" style="edgeStyle=orthogonalEdgeStyle;rounded=0;orthogonalLoop=1;jettySize=auto;html=1;entryX=0.5;entryY=0;entryDx=0;entryDy=0;" parent="1" source="sQrY8hl3HeHy2u5ssBxb-7" target="sQrY8hl3HeHy2u5ssBxb-9" edge="1">
          <mxGeometry relative="1" as="geometry" />
        </mxCell>
        <mxCell id="sQrY8hl3HeHy2u5ssBxb-12" value="&lt;font style=&quot;font-size: 10px;&quot;&gt;Foto Documento&lt;/font&gt;" style="text;html=1;align=center;verticalAlign=middle;resizable=0;points=[];autosize=1;strokeColor=none;fillColor=none;" parent="1" vertex="1">
          <mxGeometry x="323" y="200" width="100" height="30" as="geometry" />
        </mxCell>
        <mxCell id="sQrY8hl3HeHy2u5ssBxb-13" value="" style="group" parent="1" vertex="1" connectable="0">
          <mxGeometry x="380" y="260" width="120" height="60" as="geometry" />
        </mxCell>
        <mxCell id="sQrY8hl3HeHy2u5ssBxb-9" value="" style="image;aspect=fixed;perimeter=ellipsePerimeter;html=1;align=center;shadow=0;dashed=0;spacingTop=3;image=img/lib/active_directory/internet_cloud.svg;" parent="sQrY8hl3HeHy2u5ssBxb-13" vertex="1">
          <mxGeometry x="35" width="50" height="31.5" as="geometry" />
        </mxCell>
        <mxCell id="sQrY8hl3HeHy2u5ssBxb-10" value="Documentoscopia" style="text;html=1;align=center;verticalAlign=middle;resizable=0;points=[];autosize=1;strokeColor=none;fillColor=none;" parent="sQrY8hl3HeHy2u5ssBxb-13" vertex="1">
          <mxGeometry y="30" width="120" height="30" as="geometry" />
        </mxCell>
        <mxCell id="sQrY8hl3HeHy2u5ssBxb-14" value="" style="group" parent="1" vertex="1" connectable="0">
          <mxGeometry x="240" y="170" width="70.22" height="89" as="geometry" />
        </mxCell>
        <mxCell id="sQrY8hl3HeHy2u5ssBxb-7" value="" style="sketch=0;points=[[0,0,0],[0.25,0,0],[0.5,0,0],[0.75,0,0],[1,0,0],[0,1,0],[0.25,1,0],[0.5,1,0],[0.75,1,0],[1,1,0],[0,0.25,0],[0,0.5,0],[0,0.75,0],[1,0.25,0],[1,0.5,0],[1,0.75,0]];outlineConnect=0;fontColor=#232F3E;fillColor=#ED7100;strokeColor=#ffffff;dashed=0;verticalLabelPosition=bottom;verticalAlign=top;align=center;html=1;fontSize=12;fontStyle=0;aspect=fixed;shape=mxgraph.aws4.resourceIcon;resIcon=mxgraph.aws4.lambda;" parent="sQrY8hl3HeHy2u5ssBxb-14" vertex="1">
          <mxGeometry x="4.681333333333333" width="60.85733333333333" height="60.85733333333333" as="geometry" />
        </mxCell>
        <mxCell id="sQrY8hl3HeHy2u5ssBxb-8" value="Onboarding" style="text;html=1;align=center;verticalAlign=middle;resizable=0;points=[];autosize=1;strokeColor=none;fillColor=none;" parent="1" vertex="1">
          <mxGeometry x="230.11" y="230.85777777777778" width="90" height="30" as="geometry" />
        </mxCell>
        <mxCell id="sQrY8hl3HeHy2u5ssBxb-17" value="" style="group" parent="1" vertex="1" connectable="0">
          <mxGeometry x="245.11" y="310" width="60" height="90" as="geometry" />
        </mxCell>
        <mxCell id="sQrY8hl3HeHy2u5ssBxb-22" style="edgeStyle=orthogonalEdgeStyle;rounded=0;orthogonalLoop=1;jettySize=auto;html=1;exitX=0;exitY=0.5;exitDx=0;exitDy=0;exitPerimeter=0;" parent="sQrY8hl3HeHy2u5ssBxb-17" source="sQrY8hl3HeHy2u5ssBxb-15" edge="1">
          <mxGeometry relative="1" as="geometry">
            <mxPoint x="-155.11" y="-60" as="targetPoint" />
          </mxGeometry>
        </mxCell>
        <mxCell id="sQrY8hl3HeHy2u5ssBxb-15" value="" style="outlineConnect=0;dashed=0;verticalLabelPosition=bottom;verticalAlign=top;align=center;html=1;shape=mxgraph.aws3.cognito;fillColor=#AD688B;gradientColor=none;" parent="sQrY8hl3HeHy2u5ssBxb-17" vertex="1">
          <mxGeometry width="60" height="60" as="geometry" />
        </mxCell>
        <mxCell id="sQrY8hl3HeHy2u5ssBxb-16" value="Cognito" style="text;html=1;align=center;verticalAlign=middle;resizable=0;points=[];autosize=1;strokeColor=none;fillColor=none;" parent="sQrY8hl3HeHy2u5ssBxb-17" vertex="1">
          <mxGeometry y="60" width="60" height="30" as="geometry" />
        </mxCell>
        <mxCell id="sQrY8hl3HeHy2u5ssBxb-20" style="edgeStyle=orthogonalEdgeStyle;rounded=0;orthogonalLoop=1;jettySize=auto;html=1;" parent="1" source="sQrY8hl3HeHy2u5ssBxb-10" target="sQrY8hl3HeHy2u5ssBxb-15" edge="1">
          <mxGeometry relative="1" as="geometry">
            <Array as="points">
              <mxPoint x="440" y="340" />
            </Array>
          </mxGeometry>
        </mxCell>
        <mxCell id="sQrY8hl3HeHy2u5ssBxb-21" value="Cria usuário" style="text;html=1;align=center;verticalAlign=middle;resizable=0;points=[];autosize=1;strokeColor=none;fillColor=none;" parent="1" vertex="1">
          <mxGeometry x="325" y="338" width="90" height="30" as="geometry" />
        </mxCell>
        <mxCell id="sQrY8hl3HeHy2u5ssBxb-23" value="Informa ao usuário" style="text;html=1;align=center;verticalAlign=middle;resizable=0;points=[];autosize=1;strokeColor=none;fillColor=none;" parent="1" vertex="1">
          <mxGeometry x="100" y="338" width="120" height="30" as="geometry" />
        </mxCell>
        <mxCell id="sQrY8hl3HeHy2u5ssBxb-24" value="Customer" style="shape=umlActor;verticalLabelPosition=bottom;verticalAlign=top;html=1;outlineConnect=0;" parent="1" vertex="1">
          <mxGeometry x="50" y="537" width="30" height="60" as="geometry" />
        </mxCell>
        <mxCell id="sQrY8hl3HeHy2u5ssBxb-25" value="" style="group;fontColor=default;" parent="1" vertex="1" connectable="0">
          <mxGeometry x="223.95" y="540" width="62.33" height="79" as="geometry" />
        </mxCell>
        <mxCell id="sQrY8hl3HeHy2u5ssBxb-26" value="&lt;font color=&quot;#fffbfb&quot;&gt;DocumentUploadLink&lt;/font&gt;" style="sketch=0;points=[[0,0,0],[0.25,0,0],[0.5,0,0],[0.75,0,0],[1,0,0],[0,1,0],[0.25,1,0],[0.5,1,0],[0.75,1,0],[1,1,0],[0,0.25,0],[0,0.5,0],[0,0.75,0],[1,0.25,0],[1,0.5,0],[1,0.75,0]];outlineConnect=0;fontColor=#232F3E;fillColor=#ED7100;strokeColor=#ffffff;dashed=0;verticalLabelPosition=bottom;verticalAlign=top;align=center;html=1;fontSize=12;fontStyle=0;aspect=fixed;shape=mxgraph.aws4.resourceIcon;resIcon=mxgraph.aws4.lambda;" parent="sQrY8hl3HeHy2u5ssBxb-25" vertex="1">
          <mxGeometry x="4.155333333333333" width="54.01933333333333" height="54.01933333333333" as="geometry" />
        </mxCell>
        <mxCell id="sQrY8hl3HeHy2u5ssBxb-27" style="edgeStyle=orthogonalEdgeStyle;rounded=0;orthogonalLoop=1;jettySize=auto;html=1;entryX=0;entryY=0.5;entryDx=0;entryDy=0;entryPerimeter=0;fillColor=#008a00;strokeColor=#005700;" parent="1" source="sQrY8hl3HeHy2u5ssBxb-24" target="sQrY8hl3HeHy2u5ssBxb-26" edge="1">
          <mxGeometry relative="1" as="geometry" />
        </mxCell>
        <mxCell id="sQrY8hl3HeHy2u5ssBxb-28" value="Nome, Cpf, Email" style="edgeLabel;html=1;align=center;verticalAlign=middle;resizable=0;points=[];" parent="sQrY8hl3HeHy2u5ssBxb-27" vertex="1" connectable="0">
          <mxGeometry x="0.0032" y="-1" relative="1" as="geometry">
            <mxPoint y="11" as="offset" />
          </mxGeometry>
        </mxCell>
        <mxCell id="sQrY8hl3HeHy2u5ssBxb-29" value="Onboarding Info" style="outlineConnect=0;dashed=0;verticalLabelPosition=bottom;verticalAlign=top;align=center;html=1;shape=mxgraph.aws3.dynamo_db;fillColor=#2E73B8;gradientColor=none;" parent="1" vertex="1">
          <mxGeometry x="228.11" y="420" width="54" height="51" as="geometry" />
        </mxCell>
        <mxCell id="sQrY8hl3HeHy2u5ssBxb-30" value="" style="edgeStyle=orthogonalEdgeStyle;rounded=0;orthogonalLoop=1;jettySize=auto;html=1;" parent="1" source="sQrY8hl3HeHy2u5ssBxb-26" target="sQrY8hl3HeHy2u5ssBxb-29" edge="1">
          <mxGeometry relative="1" as="geometry" />
        </mxCell>
        <mxCell id="sQrY8hl3HeHy2u5ssBxb-31" value="Nome, Cpf, Email" style="edgeLabel;html=1;align=center;verticalAlign=middle;resizable=0;points=[];" parent="sQrY8hl3HeHy2u5ssBxb-30" vertex="1" connectable="0">
          <mxGeometry x="-0.1487" relative="1" as="geometry">
            <mxPoint as="offset" />
          </mxGeometry>
        </mxCell>
        <mxCell id="sQrY8hl3HeHy2u5ssBxb-36" value="" style="edgeStyle=orthogonalEdgeStyle;rounded=0;orthogonalLoop=1;jettySize=auto;html=1;fillColor=#008a00;strokeColor=#005700;" parent="1" source="sQrY8hl3HeHy2u5ssBxb-32" target="sQrY8hl3HeHy2u5ssBxb-35" edge="1">
          <mxGeometry relative="1" as="geometry" />
        </mxCell>
        <mxCell id="sQrY8hl3HeHy2u5ssBxb-37" value="Foto Doc" style="edgeLabel;html=1;align=center;verticalAlign=middle;resizable=0;points=[];" parent="sQrY8hl3HeHy2u5ssBxb-36" vertex="1" connectable="0">
          <mxGeometry x="-0.1887" y="2" relative="1" as="geometry">
            <mxPoint y="14" as="offset" />
          </mxGeometry>
        </mxCell>
        <mxCell id="sQrY8hl3HeHy2u5ssBxb-32" value="Costumer" style="shape=umlActor;verticalLabelPosition=bottom;verticalAlign=top;html=1;outlineConnect=0;" parent="1" vertex="1">
          <mxGeometry x="399" y="537.01" width="30" height="60" as="geometry" />
        </mxCell>
        <mxCell id="sQrY8hl3HeHy2u5ssBxb-33" style="edgeStyle=orthogonalEdgeStyle;rounded=0;orthogonalLoop=1;jettySize=auto;html=1;" parent="1" source="sQrY8hl3HeHy2u5ssBxb-26" target="sQrY8hl3HeHy2u5ssBxb-32" edge="1">
          <mxGeometry relative="1" as="geometry" />
        </mxCell>
        <mxCell id="sQrY8hl3HeHy2u5ssBxb-34" value="Link upload" style="edgeLabel;html=1;align=center;verticalAlign=middle;resizable=0;points=[];" parent="sQrY8hl3HeHy2u5ssBxb-33" vertex="1" connectable="0">
          <mxGeometry x="-0.2424" relative="1" as="geometry">
            <mxPoint x="14" y="12" as="offset" />
          </mxGeometry>
        </mxCell>
        <mxCell id="sQrY8hl3HeHy2u5ssBxb-35" value="Doc Identity Bucket" style="sketch=0;points=[[0,0,0],[0.25,0,0],[0.5,0,0],[0.75,0,0],[1,0,0],[0,1,0],[0.25,1,0],[0.5,1,0],[0.75,1,0],[1,1,0],[0,0.25,0],[0,0.5,0],[0,0.75,0],[1,0.25,0],[1,0.5,0],[1,0.75,0]];outlineConnect=0;fontColor=#FFFBFB;fillColor=#7AA116;strokeColor=#ffffff;dashed=0;verticalLabelPosition=bottom;verticalAlign=top;align=center;html=1;fontSize=12;fontStyle=0;aspect=fixed;shape=mxgraph.aws4.resourceIcon;resIcon=mxgraph.aws4.s3;" parent="1" vertex="1">
          <mxGeometry x="530" y="540" width="54" height="54" as="geometry" />
        </mxCell>
        <mxCell id="sQrY8hl3HeHy2u5ssBxb-38" value="" style="group;fontColor=default;" parent="1" vertex="1" connectable="0">
          <mxGeometry x="720" y="545" width="62.33" height="79" as="geometry" />
        </mxCell>
        <mxCell id="sQrY8hl3HeHy2u5ssBxb-39" value="&lt;font color=&quot;#fffbfb&quot;&gt;SendToDoumentoscopy&lt;/font&gt;" style="sketch=0;points=[[0,0,0],[0.25,0,0],[0.5,0,0],[0.75,0,0],[1,0,0],[0,1,0],[0.25,1,0],[0.5,1,0],[0.75,1,0],[1,1,0],[0,0.25,0],[0,0.5,0],[0,0.75,0],[1,0.25,0],[1,0.5,0],[1,0.75,0]];outlineConnect=0;fontColor=#232F3E;fillColor=#ED7100;strokeColor=#ffffff;dashed=0;verticalLabelPosition=bottom;verticalAlign=top;align=center;html=1;fontSize=12;fontStyle=0;aspect=fixed;shape=mxgraph.aws4.resourceIcon;resIcon=mxgraph.aws4.lambda;" parent="sQrY8hl3HeHy2u5ssBxb-38" vertex="1">
          <mxGeometry x="4.155333333333333" width="54.01933333333333" height="54.01933333333333" as="geometry" />
        </mxCell>
        <mxCell id="sQrY8hl3HeHy2u5ssBxb-40" style="edgeStyle=orthogonalEdgeStyle;rounded=0;orthogonalLoop=1;jettySize=auto;html=1;dashed=1;dashPattern=12 12;fillColor=#e3c800;strokeColor=#B09500;entryX=0;entryY=0.5;entryDx=0;entryDy=0;entryPerimeter=0;" parent="1" source="sQrY8hl3HeHy2u5ssBxb-35" target="sQrY8hl3HeHy2u5ssBxb-39" edge="1">
          <mxGeometry relative="1" as="geometry">
            <mxPoint x="660" y="572" as="targetPoint" />
            <Array as="points">
              <mxPoint x="660" y="572" />
              <mxPoint x="660" y="572" />
            </Array>
          </mxGeometry>
        </mxCell>
        <mxCell id="sQrY8hl3HeHy2u5ssBxb-41" value="UploadEvent" style="edgeLabel;html=1;align=center;verticalAlign=middle;resizable=0;points=[];" parent="sQrY8hl3HeHy2u5ssBxb-40" vertex="1" connectable="0">
          <mxGeometry x="-0.1931" y="1" relative="1" as="geometry">
            <mxPoint x="9" y="9" as="offset" />
          </mxGeometry>
        </mxCell>
        <mxCell id="sQrY8hl3HeHy2u5ssBxb-56" value="" style="edgeStyle=orthogonalEdgeStyle;rounded=0;orthogonalLoop=1;jettySize=auto;html=1;" parent="1" source="sQrY8hl3HeHy2u5ssBxb-46" target="sQrY8hl3HeHy2u5ssBxb-55" edge="1">
          <mxGeometry relative="1" as="geometry" />
        </mxCell>
        <mxCell id="sQrY8hl3HeHy2u5ssBxb-46" value="Documentoscopy&lt;br&gt;Response" style="sketch=0;points=[[0,0,0],[0.25,0,0],[0.5,0,0],[0.75,0,0],[1,0,0],[0,1,0],[0.25,1,0],[0.5,1,0],[0.75,1,0],[1,1,0],[0,0.25,0],[0,0.5,0],[0,0.75,0],[1,0.25,0],[1,0.5,0],[1,0.75,0]];outlineConnect=0;fontColor=#FFF7F7;fillColor=#E7157B;strokeColor=#ffffff;dashed=0;verticalLabelPosition=bottom;verticalAlign=top;align=center;html=1;fontSize=12;fontStyle=0;aspect=fixed;shape=mxgraph.aws4.resourceIcon;resIcon=mxgraph.aws4.sqs;" parent="1" vertex="1">
          <mxGeometry x="1000" y="547.01" width="50" height="50" as="geometry" />
        </mxCell>
        <mxCell id="sQrY8hl3HeHy2u5ssBxb-51" value="Documentoscopy" style="image;aspect=fixed;perimeter=ellipsePerimeter;html=1;align=center;shadow=0;dashed=0;spacingTop=3;image=img/lib/active_directory/internet_cloud.svg;" parent="1" vertex="1">
          <mxGeometry x="870" y="556.26" width="50" height="31.5" as="geometry" />
        </mxCell>
        <mxCell id="sQrY8hl3HeHy2u5ssBxb-52" style="edgeStyle=orthogonalEdgeStyle;rounded=0;orthogonalLoop=1;jettySize=auto;html=1;entryX=0;entryY=0.5;entryDx=0;entryDy=0;" parent="1" source="sQrY8hl3HeHy2u5ssBxb-39" target="sQrY8hl3HeHy2u5ssBxb-51" edge="1">
          <mxGeometry relative="1" as="geometry" />
        </mxCell>
        <mxCell id="sQrY8hl3HeHy2u5ssBxb-53" style="edgeStyle=orthogonalEdgeStyle;rounded=0;orthogonalLoop=1;jettySize=auto;html=1;entryX=0;entryY=0.5;entryDx=0;entryDy=0;entryPerimeter=0;" parent="1" source="sQrY8hl3HeHy2u5ssBxb-51" target="sQrY8hl3HeHy2u5ssBxb-46" edge="1">
          <mxGeometry relative="1" as="geometry" />
        </mxCell>
        <mxCell id="sQrY8hl3HeHy2u5ssBxb-54" value="" style="group;fontColor=default;" parent="1" vertex="1" connectable="0">
          <mxGeometry x="1150" y="545" width="62.33" height="79" as="geometry" />
        </mxCell>
        <mxCell id="sQrY8hl3HeHy2u5ssBxb-55" value="&lt;font color=&quot;#fffbfb&quot;&gt;HandleDocumentoscopyService&lt;/font&gt;" style="sketch=0;points=[[0,0,0],[0.25,0,0],[0.5,0,0],[0.75,0,0],[1,0,0],[0,1,0],[0.25,1,0],[0.5,1,0],[0.75,1,0],[1,1,0],[0,0.25,0],[0,0.5,0],[0,0.75,0],[1,0.25,0],[1,0.5,0],[1,0.75,0]];outlineConnect=0;fontColor=#232F3E;fillColor=#ED7100;strokeColor=#ffffff;dashed=0;verticalLabelPosition=bottom;verticalAlign=top;align=center;html=1;fontSize=12;fontStyle=0;aspect=fixed;shape=mxgraph.aws4.resourceIcon;resIcon=mxgraph.aws4.lambda;" parent="sQrY8hl3HeHy2u5ssBxb-54" vertex="1">
          <mxGeometry x="4.155333333333333" width="54.01933333333333" height="54.01933333333333" as="geometry" />
        </mxCell>
        <mxCell id="m6N0jmKlXtv-_WL4subR-12" style="edgeStyle=orthogonalEdgeStyle;rounded=0;orthogonalLoop=1;jettySize=auto;html=1;" parent="1" source="sQrY8hl3HeHy2u5ssBxb-57" edge="1">
          <mxGeometry relative="1" as="geometry">
            <mxPoint x="1090" y="192.32" as="targetPoint" />
          </mxGeometry>
        </mxCell>
        <mxCell id="sQrY8hl3HeHy2u5ssBxb-57" value="&lt;font color=&quot;#ffffff&quot;&gt;Notify Customer&lt;/font&gt;" style="sketch=0;points=[[0,0,0],[0.25,0,0],[0.5,0,0],[0.75,0,0],[1,0,0],[0,1,0],[0.25,1,0],[0.5,1,0],[0.75,1,0],[1,1,0],[0,0.25,0],[0,0.5,0],[0,0.75,0],[1,0.25,0],[1,0.5,0],[1,0.75,0]];outlineConnect=0;fontColor=#232F3E;fillColor=#E7157B;strokeColor=#ffffff;dashed=0;verticalLabelPosition=bottom;verticalAlign=top;align=center;html=1;fontSize=12;fontStyle=0;aspect=fixed;shape=mxgraph.aws4.resourceIcon;resIcon=mxgraph.aws4.sns;" parent="1" vertex="1">
          <mxGeometry x="1000" y="222.32" width="50" height="50" as="geometry" />
        </mxCell>
        <mxCell id="sQrY8hl3HeHy2u5ssBxb-61" value="" style="sketch=0;points=[[0,0,0],[0.25,0,0],[0.5,0,0],[0.75,0,0],[1,0,0],[0,1,0],[0.25,1,0],[0.5,1,0],[0.75,1,0],[1,1,0],[0,0.25,0],[0,0.5,0],[0,0.75,0],[1,0.25,0],[1,0.5,0],[1,0.75,0]];outlineConnect=0;fontColor=#232F3E;fillColor=#DD344C;strokeColor=#ffffff;dashed=0;verticalLabelPosition=bottom;verticalAlign=top;align=center;html=1;fontSize=12;fontStyle=0;aspect=fixed;shape=mxgraph.aws4.resourceIcon;resIcon=mxgraph.aws4.cognito;" parent="1" vertex="1">
          <mxGeometry x="1300" y="545" width="53" height="53" as="geometry" />
        </mxCell>
        <mxCell id="sQrY8hl3HeHy2u5ssBxb-62" value="" style="edgeStyle=orthogonalEdgeStyle;rounded=0;orthogonalLoop=1;jettySize=auto;html=1;" parent="1" source="sQrY8hl3HeHy2u5ssBxb-55" target="sQrY8hl3HeHy2u5ssBxb-61" edge="1">
          <mxGeometry relative="1" as="geometry" />
        </mxCell>
        <mxCell id="sQrY8hl3HeHy2u5ssBxb-63" value="Aproved" style="edgeLabel;html=1;align=center;verticalAlign=middle;resizable=0;points=[];" parent="sQrY8hl3HeHy2u5ssBxb-62" vertex="1" connectable="0">
          <mxGeometry x="-0.1277" y="-1" relative="1" as="geometry">
            <mxPoint as="offset" />
          </mxGeometry>
        </mxCell>
        <mxCell id="OTlfgxy5lV5_lmcrIQh8-4" value="" style="edgeStyle=orthogonalEdgeStyle;rounded=0;orthogonalLoop=1;jettySize=auto;html=1;" edge="1" parent="1" source="m6N0jmKlXtv-_WL4subR-1" target="OTlfgxy5lV5_lmcrIQh8-2">
          <mxGeometry relative="1" as="geometry" />
        </mxCell>
        <mxCell id="m6N0jmKlXtv-_WL4subR-1" value="Onboarding&lt;br&gt;Notification" style="sketch=0;points=[[0,0,0],[0.25,0,0],[0.5,0,0],[0.75,0,0],[1,0,0],[0,1,0],[0.25,1,0],[0.5,1,0],[0.75,1,0],[1,1,0],[0,0.25,0],[0,0.5,0],[0,0.75,0],[1,0.25,0],[1,0.5,0],[1,0.75,0]];outlineConnect=0;fontColor=#FFF7F7;fillColor=#E7157B;strokeColor=#ffffff;dashed=0;verticalLabelPosition=bottom;verticalAlign=top;align=center;html=1;fontSize=12;fontStyle=0;aspect=fixed;shape=mxgraph.aws4.resourceIcon;resIcon=mxgraph.aws4.sqs;" parent="1" vertex="1">
          <mxGeometry x="1000" y="430" width="50" height="50" as="geometry" />
        </mxCell>
        <mxCell id="m6N0jmKlXtv-_WL4subR-2" style="edgeStyle=orthogonalEdgeStyle;rounded=0;orthogonalLoop=1;jettySize=auto;html=1;entryX=0;entryY=0.5;entryDx=0;entryDy=0;entryPerimeter=0;" parent="1" source="sQrY8hl3HeHy2u5ssBxb-39" target="m6N0jmKlXtv-_WL4subR-1" edge="1">
          <mxGeometry relative="1" as="geometry">
            <Array as="points">
              <mxPoint x="751" y="455" />
            </Array>
          </mxGeometry>
        </mxCell>
        <mxCell id="m6N0jmKlXtv-_WL4subR-5" style="edgeStyle=orthogonalEdgeStyle;rounded=0;orthogonalLoop=1;jettySize=auto;html=1;" parent="1" source="sQrY8hl3HeHy2u5ssBxb-61" target="m6N0jmKlXtv-_WL4subR-1" edge="1">
          <mxGeometry relative="1" as="geometry">
            <mxPoint x="1120" y="400" as="targetPoint" />
            <Array as="points">
              <mxPoint x="1327" y="455" />
            </Array>
          </mxGeometry>
        </mxCell>
        <mxCell id="m6N0jmKlXtv-_WL4subR-6" style="edgeStyle=orthogonalEdgeStyle;rounded=0;orthogonalLoop=1;jettySize=auto;html=1;exitX=0.5;exitY=0;exitDx=0;exitDy=0;exitPerimeter=0;entryX=1;entryY=0.75;entryDx=0;entryDy=0;entryPerimeter=0;" parent="1" source="sQrY8hl3HeHy2u5ssBxb-55" target="m6N0jmKlXtv-_WL4subR-1" edge="1">
          <mxGeometry relative="1" as="geometry" />
        </mxCell>
        <mxCell id="m6N0jmKlXtv-_WL4subR-10" value="" style="html=1;verticalLabelPosition=bottom;align=center;labelBackgroundColor=#ffffff;verticalAlign=top;strokeWidth=2;strokeColor=#0080F0;shadow=0;dashed=0;shape=mxgraph.ios7.icons.smartphone;" parent="1" vertex="1">
          <mxGeometry x="1080" y="143.18" width="28.8" height="48" as="geometry" />
        </mxCell>
        <mxCell id="m6N0jmKlXtv-_WL4subR-11" style="edgeStyle=orthogonalEdgeStyle;rounded=0;orthogonalLoop=1;jettySize=auto;html=1;entryX=0.5;entryY=1;entryDx=0;entryDy=0;entryPerimeter=0;" parent="1" source="sQrY8hl3HeHy2u5ssBxb-57" target="m6N0jmKlXtv-_WL4subR-14" edge="1">
          <mxGeometry relative="1" as="geometry">
            <mxPoint x="945" y="189.82" as="targetPoint" />
          </mxGeometry>
        </mxCell>
        <mxCell id="m6N0jmKlXtv-_WL4subR-13" value="" style="group;fontColor=default;" parent="1" vertex="1" connectable="0">
          <mxGeometry x="920" y="127.68" width="62.33" height="79" as="geometry" />
        </mxCell>
        <mxCell id="m6N0jmKlXtv-_WL4subR-14" value="&lt;font color=&quot;#fffbfb&quot;&gt;EmailFormater&lt;/font&gt;" style="sketch=0;points=[[0,0,0],[0.25,0,0],[0.5,0,0],[0.75,0,0],[1,0,0],[0,1,0],[0.25,1,0],[0.5,1,0],[0.75,1,0],[1,1,0],[0,0.25,0],[0,0.5,0],[0,0.75,0],[1,0.25,0],[1,0.5,0],[1,0.75,0]];outlineConnect=0;fontColor=#232F3E;fillColor=#ED7100;strokeColor=#ffffff;dashed=0;verticalLabelPosition=bottom;verticalAlign=top;align=center;html=1;fontSize=12;fontStyle=0;aspect=fixed;shape=mxgraph.aws4.resourceIcon;resIcon=mxgraph.aws4.lambda;" parent="m6N0jmKlXtv-_WL4subR-13" vertex="1">
          <mxGeometry x="4.155333333333333" width="54.01933333333333" height="54.01933333333333" as="geometry" />
        </mxCell>
        <mxCell id="OTlfgxy5lV5_lmcrIQh8-1" value="" style="group;fontColor=default;" vertex="1" connectable="0" parent="1">
          <mxGeometry x="993.8299999999999" y="321" width="62.33" height="79" as="geometry" />
        </mxCell>
        <mxCell id="OTlfgxy5lV5_lmcrIQh8-2" value="&lt;font color=&quot;#fffbfb&quot;&gt;Notification Lambda&lt;/font&gt;" style="sketch=0;points=[[0,0,0],[0.25,0,0],[0.5,0,0],[0.75,0,0],[1,0,0],[0,1,0],[0.25,1,0],[0.5,1,0],[0.75,1,0],[1,1,0],[0,0.25,0],[0,0.5,0],[0,0.75,0],[1,0.25,0],[1,0.5,0],[1,0.75,0]];outlineConnect=0;fontColor=#232F3E;fillColor=#ED7100;strokeColor=#ffffff;dashed=0;verticalLabelPosition=bottom;verticalAlign=top;align=center;html=1;fontSize=12;fontStyle=0;aspect=fixed;shape=mxgraph.aws4.resourceIcon;resIcon=mxgraph.aws4.lambda;" vertex="1" parent="OTlfgxy5lV5_lmcrIQh8-1">
          <mxGeometry x="4.155333333333333" width="54.01933333333333" height="54.01933333333333" as="geometry" />
        </mxCell>
        <mxCell id="OTlfgxy5lV5_lmcrIQh8-3" value="" style="edgeStyle=orthogonalEdgeStyle;rounded=0;orthogonalLoop=1;jettySize=auto;html=1;" edge="1" parent="1" source="OTlfgxy5lV5_lmcrIQh8-2" target="sQrY8hl3HeHy2u5ssBxb-57">
          <mxGeometry relative="1" as="geometry" />
        </mxCell>
      </root>
    </mxGraphModel>
  </diagram>
</mxfile>
